REM DIRINDEX 1\2\6,1\2\7,1\2\8,1\3\9,1\3\10,1\3\11,1\4\12,1\4\13,1\4\14,1\5\15,1\5\16,1\5\17,1\5\18
REM DIRNAME cjc019,folder01,folder02,folder03,folder04,folder05,folder06,folder07,folder08,folder09,folder10,folder11,folder12,folder13,folder14,folder15,folder16,folder17
TITLE ""
FILE "2Q_t_1057-1074.mp3" MP3
  TRACK 01 AUDIO
    TITLE "13:cjc019_4176"
    INDEX 01 00:00:00
  TRACK 02 AUDIO
    TITLE "0:"
    INDEX 01 00:01:26
  TRACK 03 AUDIO
    TITLE "14:cjc019_4177"
    INDEX 01 00:02:06
  TRACK 04 AUDIO
    TITLE "0:"
    INDEX 01 00:04:46
  TRACK 05 AUDIO
    TITLE "13:cjc019_4178"
    INDEX 01 00:05:26
  TRACK 06 AUDIO
    TITLE "0:"
    INDEX 01 00:06:59
  TRACK 07 AUDIO
    TITLE "14:cjc019_4179"
    INDEX 01 00:07:41
  TRACK 08 AUDIO
    TITLE "0:"
    INDEX 01 00:11:05
  TRACK 09 AUDIO
    TITLE "13:cjc019_4180"
    INDEX 01 00:11:56
  TRACK 10 AUDIO
    TITLE "0:"
    INDEX 01 00:13:08
  TRACK 11 AUDIO
    TITLE "14:cjc019_4181"
    INDEX 01 00:13:67
  TRACK 12 AUDIO
    TITLE "0:"
    INDEX 01 00:16:24
  TRACK 13 AUDIO
    TITLE "13:cjc019_4182"
    INDEX 01 00:16:73
  TRACK 14 AUDIO
    TITLE "0:"
    INDEX 01 00:17:74
  TRACK 15 AUDIO
    TITLE "14:cjc019_4183"
    INDEX 01 00:18:62
  TRACK 16 AUDIO
    TITLE "0:"
    INDEX 01 00:22:23
  TRACK 17 AUDIO
    TITLE "13:cjc019_4184"
    INDEX 01 00:23:08
  TRACK 18 AUDIO
    TITLE "0:"
    INDEX 01 00:24:33
  TRACK 19 AUDIO
    TITLE "14:cjc019_4185"
    INDEX 01 00:25:25
  TRACK 20 AUDIO
    TITLE "0:"
    INDEX 01 00:30:36
  TRACK 21 AUDIO
    TITLE "13:cjc019_4186"
    INDEX 01 00:31:14
  TRACK 22 AUDIO
    TITLE "0:"
    INDEX 01 00:32:35
  TRACK 23 AUDIO
    TITLE "14:cjc019_4187"
    INDEX 01 00:33:21
  TRACK 24 AUDIO
    TITLE "0:"
    INDEX 01 00:34:34
  TRACK 25 AUDIO
    TITLE "13:cjc019_4188"
    INDEX 01 00:35:15
  TRACK 26 AUDIO
    TITLE "0:"
    INDEX 01 00:36:48
  TRACK 27 AUDIO
    TITLE "14:cjc019_4189"
    INDEX 01 00:37:26
  TRACK 28 AUDIO
    TITLE "0:"
    INDEX 01 00:39:66
  TRACK 29 AUDIO
    TITLE "13:cjc019_4190"
    INDEX 01 00:40:44
  TRACK 30 AUDIO
    TITLE "0:"
    INDEX 01 00:41:61
  TRACK 31 AUDIO
    TITLE "14:cjc019_4191"
    INDEX 01 00:42:45
  TRACK 32 AUDIO
    TITLE "0:"
    INDEX 01 00:46:07
  TRACK 33 AUDIO
    TITLE "13:cjc019_4192"
    INDEX 01 00:46:64
  TRACK 34 AUDIO
    TITLE "0:"
    INDEX 01 00:48:16
  TRACK 35 AUDIO
    TITLE "14:cjc019_4193"
    INDEX 01 00:48:69
  TRACK 36 AUDIO
    TITLE "0:"
    INDEX 01 00:51:15
  TRACK 37 AUDIO
    TITLE "13:cjc019_4194"
    INDEX 01 00:51:62
  TRACK 38 AUDIO
    TITLE "0:"
    INDEX 01 00:53:08
  TRACK 39 AUDIO
    TITLE "14:cjc019_4195"
    INDEX 01 00:53:62
  TRACK 40 AUDIO
    TITLE "0:"
    INDEX 01 00:54:70
  TRACK 41 AUDIO
    TITLE "13:cjc019_4196"
    INDEX 01 00:55:48
  TRACK 42 AUDIO
    TITLE "0:"
    INDEX 01 00:56:55
  TRACK 43 AUDIO
    TITLE "14:cjc019_4197"
    INDEX 01 00:57:37
  TRACK 44 AUDIO
    TITLE "0:"
    INDEX 01 00:59:67
  TRACK 45 AUDIO
    TITLE "13:cjc019_4198"
    INDEX 01 01:00:39
  TRACK 46 AUDIO
    TITLE "0:"
    INDEX 01 01:01:48
  TRACK 47 AUDIO
    TITLE "14:cjc019_4199"
    INDEX 01 01:02:34
  TRACK 48 AUDIO
    TITLE "0:"
    INDEX 01 01:05:30
  TRACK 49 AUDIO
    TITLE "13:cjc019_4200"
    INDEX 01 01:06:10
  TRACK 50 AUDIO
    TITLE "0:"
    INDEX 01 01:07:37
  TRACK 51 AUDIO
    TITLE "14:cjc019_4201"
    INDEX 01 01:08:21
  TRACK 52 AUDIO
    TITLE "0:"
    INDEX 01 01:11:25
  TRACK 53 AUDIO
    TITLE "13:cjc019_4202"
    INDEX 01 01:12:07
  TRACK 54 AUDIO
    TITLE "0:"
    INDEX 01 01:13:16
  TRACK 55 AUDIO
    TITLE "14:cjc019_4203"
    INDEX 01 01:14:00
  TRACK 56 AUDIO
    TITLE "0:"
    INDEX 01 01:16:12
  TRACK 57 AUDIO
    TITLE "13:cjc019_4204"
    INDEX 01 01:16:71
  TRACK 58 AUDIO
    TITLE "0:"
    INDEX 01 01:18:06
  TRACK 59 AUDIO
    TITLE "14:cjc019_4205"
    INDEX 01 01:18:64
  TRACK 60 AUDIO
    TITLE "0:"
    INDEX 01 01:21:72
  TRACK 61 AUDIO
    TITLE "13:cjc019_4206"
    INDEX 01 01:22:50
  TRACK 62 AUDIO
    TITLE "0:"
    INDEX 01 01:24:02
  TRACK 63 AUDIO
    TITLE "14:cjc019_4207"
    INDEX 01 01:24:59
  TRACK 64 AUDIO
    TITLE "0:"
    INDEX 01 01:25:74
  TRACK 65 AUDIO
    TITLE "13:cjc019_4208"
    INDEX 01 01:26:50
  TRACK 66 AUDIO
    TITLE "0:"
    INDEX 01 01:27:53
  TRACK 67 AUDIO
    TITLE "14:cjc019_4209"
    INDEX 01 01:28:31
  TRACK 68 AUDIO
    TITLE "0:"
    INDEX 01 01:30:58
  TRACK 69 AUDIO
    TITLE "13:cjc019_4210"
    INDEX 01 01:31:39
  TRACK 70 AUDIO
    TITLE "0:"
    INDEX 01 01:32:51
  TRACK 71 AUDIO
    TITLE "14:cjc019_4211"
    INDEX 01 01:33:36
  TRACK 72 AUDIO
    TITLE "0:"
    INDEX 01 01:38:14
